<svg xmlns="http://www.w3.org/2000/svg" xmlns:xlink="http://www.w3.org/1999/xlink" width="950" height="1000" viewBox="0 0 950 1000" style="font-weight:700;font-family:arial,'lucida console',sans-serif,黑体;font-size:14px"><defs><linearGradient id="line" x1="50%" x2="50%" y1="0%" y2="100%"><stop offset="20%" stop-color="#8AE"/><stop offset="100%" stop-color="#249"/></linearGradient><marker id="arrow" markerHeight="8" markerWidth="10" orient="auto" refX="4" refY="4"><path fill="#fff" stroke="#000" d="M0,0 8,4 0,8Z"/></marker><g id="bg"><rect width="10" height="10" x="0" y="0" fill="url(#line)" stroke="#238" stroke-width="2" rx="5" ry="5"/></g></defs><rect width="950" height="1000" x="0" y="0" fill="#fff"/><g transform="translate(300,10)"><rect width="130" height="25" x="0" y="0" fill="url(#line)" stroke="#238" stroke-width="2" rx="5" ry="5"/><text x="10" y="17" fill="#fff">Ext.Component</text><line x1="65" x2="65" y1="25" y2="45" stroke="#000"/><line x1="-200" x2="400" y1="45" y2="45" stroke="#000"/></g><g><g transform="translate(10,80) translate(0,0)"><line x1="90" x2="90" y1="-25" y2="-5" stroke="#000" marker-end="url(#arrow)"/><rect width="155" height="25" x="0" y="0" fill="url(#line)" stroke="#238" stroke-width="2" rx="5" ry="5"/><text x="10" y="17" fill="#fff">Ext.BoxComponent</text><line x1="5" x2="5" y1="25" y2="850" stroke="#000"/></g><g><g transform="translate(10,80) translate(20,30) translate(0,0)"><line x1="-15" x2="-5" y1="10" y2="10" stroke="#000" marker-end="url(#arrow)"/><rect width="95" height="25" x="0" y="0" fill="url(#line)" stroke="#238" stroke-width="2" rx="5" ry="5"/><text x="10" y="17" fill="#fff">Ext.Button</text><line x1="5" x2="5" y1="25" y2="40" stroke="#000"/><line x1="5" x2="15" y1="40" y2="40" stroke="#000" marker-end="url(#arrow)"/></g><g transform="translate(10,80) translate(20,30) translate(20,30)"><rect width="120" height="25" x="0" y="0" fill="url(#line)" stroke="#238" stroke-width="2" rx="5" ry="5"/><text x="10" y="17" fill="#fff">Ext.SplitButton</text><line x1="5" x2="5" y1="25" y2="40" stroke="#000"/><line x1="5" x2="15" y1="40" y2="40" stroke="#000" marker-end="url(#arrow)"/></g><g transform="translate(10,80) translate(20,30) translate(40,60)"><rect width="130" height="25" x="0" y="0" fill="url(#line)" stroke="#238" stroke-width="2" rx="5" ry="5"/><text x="10" y="17" fill="#fff">Ext.CycleButton</text></g></g><g><g transform="translate(10,80) translate(0,90) translate(20,30)"><line x1="-15" x2="-5" y1="10" y2="10" stroke="#000" marker-end="url(#arrow)"/><rect width="120" height="25" x="0" y="0" fill="url(#line)" stroke="#238" stroke-width="2" rx="5" ry="5"/><text x="10" y="17" fill="#fff">Ext.Container</text><line x1="5" x2="5" y1="25" y2="370" stroke="#000"/></g><g transform="translate(10,80) translate(0,90) translate(40,60)"><line x1="-15" x2="-5" y1="10" y2="10" stroke="#000" marker-end="url(#arrow)"/><rect width="90" height="25" x="0" y="0" fill="url(#line)" stroke="#238" stroke-width="2" rx="5" ry="5"/><text x="10" y="17" fill="#fff">Ext.Panel</text><line x1="5" x2="5" y1="25" y2="220" stroke="#000"/></g><g transform="translate(10,80) translate(0,90) translate(60,90)"><line x1="-15" x2="-5" y1="10" y2="10" stroke="#000" marker-end="url(#arrow)"/><rect width="110" height="25" x="0" y="0" fill="url(#line)" stroke="#238" stroke-width="2" rx="5" ry="5"/><text x="10" y="17" fill="#fff">Ext.TabPanel</text></g><g transform="translate(10,80) translate(0,90) translate(60,120)"><line x1="-15" x2="-5" y1="10" y2="10" stroke="#000" marker-end="url(#arrow)"/><rect width="70" height="25" x="0" y="0" fill="url(#line)" stroke="#238" stroke-width="2" rx="5" ry="5"/><text x="10" y="17" fill="#fff">Ext.Tip</text></g><g transform="translate(10,80) translate(0,90) translate(60,150)"><line x1="-15" x2="-5" y1="10" y2="10" stroke="#000" marker-end="url(#arrow)"/><rect width="100" height="25" x="0" y="0" fill="url(#line)" stroke="#238" stroke-width="2" rx="5" ry="5"/><text x="10" y="17" fill="#fff">Ext.Window</text></g><g transform="translate(10,80) translate(0,90) translate(60,180)"><line x1="-15" x2="-5" y1="10" y2="10" stroke="#000" marker-end="url(#arrow)"/><rect width="140" height="25" x="0" y="0" fill="url(#line)" stroke="#238" stroke-width="2" rx="5" ry="5"/><text x="10" y="17" fill="#fff">Ext.form.FieldSet</text></g><g transform="translate(10,80) translate(0,90) translate(60,210)"><line x1="-15" x2="-5" y1="10" y2="10" stroke="#000" marker-end="url(#arrow)"/><rect width="155" height="25" x="0" y="0" fill="url(#line)" stroke="#238" stroke-width="2" rx="5" ry="5"/><text x="10" y="17" fill="#fff">Ext.form.FormPanel</text></g><g><g transform="translate(10,80) translate(0,90) translate(60,240) translate(0,0)"><line x1="-15" x2="-5" y1="10" y2="10" stroke="#000" marker-end="url(#arrow)"/><rect width="150" height="25" x="0" y="0" fill="url(#line)" stroke="#238" stroke-width="2" rx="5" ry="5"/><text x="10" y="17" fill="#fff">Ext.grid.GridPanel</text></g><g transform="translate(10,80) translate(0,90) translate(60,240) translate(165,0)"><line x1="-15" x2="-5" y1="10" y2="10" stroke="#000" marker-end="url(#arrow)"/><rect width="185" height="25" x="0" y="0" fill="url(#line)" stroke="#238" stroke-width="2" rx="5" ry="5"/><text x="10" y="17" fill="#fff">Ext.grid.EditorGridPanel</text></g><g transform="translate(10,80) translate(0,90) translate(60,240) translate(365,0)"><line x1="-15" x2="-5" y1="10" y2="10" stroke="#000" marker-end="url(#arrow)"/><rect width="170" height="25" x="0" y="0" fill="url(#line)" stroke="#238" stroke-width="2" rx="5" ry="5"/><text x="10" y="17" fill="#fff">Ext.grid.PropertyGrid</text></g></g><g transform="translate(10,80) translate(0,90) translate(60,270)"><line x1="-15" x2="-5" y1="10" y2="10" stroke="#000" marker-end="url(#arrow)"/><rect width="150" height="25" x="0" y="0" fill="url(#line)" stroke="#238" stroke-width="2" rx="5" ry="5"/><text x="10" y="17" fill="#fff">Ext.tree.TreePanel</text></g><g><g transform="translate(10,80) translate(0,90) translate(20,0) translate(20,300)"><line x1="-15" x2="-5" y1="10" y2="10" stroke="#000" marker-end="url(#arrow)"/><rect width="100" height="25" x="0" y="0" fill="url(#line)" stroke="#238" stroke-width="2" rx="5" ry="5"/><text x="10" y="17" fill="#fff">Ext.Toolbar</text><line x1="5" x2="5" y1="25" y2="40" stroke="#000"/></g><g transform="translate(10,80) translate(0,90) translate(20,0) translate(40,330)"><line x1="-15" x2="-5" y1="10" y2="10" stroke="#000" marker-end="url(#arrow)"/><rect width="145" height="25" x="0" y="0" fill="url(#line)" stroke="#238" stroke-width="2" rx="5" ry="5"/><text x="10" y="17" fill="#fff">Ext.PagingToolbar</text></g></g><g transform="translate(10,80) translate(0,90) translate(40,360)"><line x1="-15" x2="-5" y1="10" y2="10" stroke="#000" marker-end="url(#arrow)"/><rect width="110" height="25" x="0" y="0" fill="url(#line)" stroke="#238" stroke-width="2" rx="5" ry="5"/><text x="10" y="17" fill="#fff">Ext.Viewport</text></g><g transform="translate(10,80) translate(0,90) translate(40,390)"><line x1="-15" x2="-5" y1="10" y2="10" stroke="#000" marker-end="url(#arrow)"/><rect width="100" height="25" x="0" y="0" fill="url(#line)" stroke="#238" stroke-width="2" rx="5" ry="5"/><text x="10" y="17" fill="#fff">Ext.Menu</text></g></g><g transform="translate(10,80) translate(20,510)"><line x1="-15" x2="-5" y1="10" y2="10" stroke="#000" marker-end="url(#arrow)"/><rect width="110" height="25" x="0" y="0" fill="url(#line)" stroke="#238" stroke-width="2" rx="5" ry="5"/><text x="10" y="17" fill="#fff">Ext.DataView</text></g><g transform="translate(10,80) translate(20,540)"><line x1="-15" x2="-5" y1="10" y2="10" stroke="#000" marker-end="url(#arrow)"/><rect width="165" height="25" x="0" y="0" fill="url(#line)" stroke="#238" stroke-width="2" rx="5" ry="5"/><text x="10" y="17" fill="#fff">Ext.FlashComponent</text></g><g transform="translate(10,80) translate(20,570)"><line x1="-15" x2="-5" y1="10" y2="10" stroke="#000" marker-end="url(#arrow)"/><rect width="130" height="25" x="0" y="0" fill="url(#line)" stroke="#238" stroke-width="2" rx="5" ry="5"/><text x="10" y="17" fill="#fff">Ext.ProgressBar</text></g><g transform="translate(10,80) translate(20,600)"><line x1="-15" x2="-5" y1="10" y2="10" stroke="#000" marker-end="url(#arrow)"/><rect width="90" height="25" x="0" y="0" fill="url(#line)" stroke="#238" stroke-width="2" rx="5" ry="5"/><text x="10" y="17" fill="#fff">Ext.Slider</text></g><g transform="translate(10,80) translate(20,630)"><line x1="-15" x2="-5" y1="10" y2="10" stroke="#000" marker-end="url(#arrow)"/><rect width="100" height="25" x="0" y="0" fill="url(#line)" stroke="#238" stroke-width="2" rx="5" ry="5"/><text x="10" y="17" fill="#fff">Ext.Spacer</text></g><g transform="translate(10,80) translate(20,660)"><line x1="-15" x2="-5" y1="10" y2="10" stroke="#000" marker-end="url(#arrow)"/><rect width="145" height="25" x="0" y="0" fill="url(#line)" stroke="#238" stroke-width="2" rx="5" ry="5"/><text x="10" y="17" fill="#fff">Ext.Toolbar.Item</text></g><g><g transform="translate(10,80) translate(0,120) translate(20,570)"><line x1="-15" x2="-5" y1="10" y2="10" stroke="#000" marker-end="url(#arrow)"/><rect width="120" height="25" x="0" y="0" fill="url(#line)" stroke="#238" stroke-width="2" rx="5" ry="5"/><text x="10" y="17" fill="#fff">Ext.form.Field</text><line x1="5" x2="5" y1="25" y2="130" stroke="#000"/><line x1="5" x2="15" y1="40" y2="40" stroke="#000" marker-end="url(#arrow)"/><line x1="5" x2="15" y1="70" y2="70" stroke="#000" marker-end="url(#arrow)"/><line x1="5" x2="15" y1="100" y2="100" stroke="#000" marker-end="url(#arrow)"/><line x1="5" x2="15" y1="130" y2="130" stroke="#000" marker-end="url(#arrow)"/></g><g><g transform="translate(10,80) translate(0,120) translate(40,570) translate(0,30)"><rect width="145" height="25" x="0" y="0" fill="url(#line)" stroke="#238" stroke-width="2" rx="5" ry="5"/><text x="10" y="17" fill="#fff">Ext.form.TextField</text><line x1="145" x2="150" y1="12" y2="12" stroke="#000"/><line x1="150" x2="150" y1="-20" y2="40" stroke="#000"/><line x1="150" x2="160" y1="-20" y2="-20" stroke="#000" marker-end="url(#arrow)"/><line x1="150" x2="160" y1="12" y2="12" stroke="#000" marker-end="url(#arrow)"/><line x1="150" x2="160" y1="40" y2="40" stroke="#000" marker-end="url(#arrow)"/></g><g transform="translate(10,80) translate(0,120) translate(40,570) translate(165,0)"><rect width="170" height="25" x="0" y="0" fill="url(#line)" stroke="#238" stroke-width="2" rx="5" ry="5"/><text x="10" y="17" fill="#fff">Ext.form.NumberField</text></g><g><g transform="translate(10,80) translate(0,120) translate(40,570) translate(165,15) translate(0,15)"><rect width="170" height="25" x="0" y="0" fill="url(#line)" stroke="#238" stroke-width="2" rx="5" ry="5"/><text x="10" y="17" fill="#fff">Ext.form.TriggerField</text><line x1="170" x2="175" y1="12" y2="12" stroke="#000"/><line x1="175" x2="175" y1="-5" y2="30" stroke="#000"/><line x1="175" x2="185" y1="-5" y2="-5" stroke="#000" marker-end="url(#arrow)"/><line x1="175" x2="185" y1="30" y2="30" stroke="#000" marker-end="url(#arrow)"/></g><g><g transform="translate(10,80) translate(0,120) translate(40,570) translate(165,15) translate(190,0) translate(0,0)"><rect width="160" height="25" x="0" y="0" fill="url(#line)" stroke="#238" stroke-width="2" rx="5" ry="5"/><text x="10" y="17" fill="#fff">Ext.form.ComboBox</text><line x1="160" x2="175" y1="12" y2="12" stroke="#000" marker-end="url(#arrow)"/></g><g transform="translate(10,80) translate(0,120) translate(40,570) translate(165,15) translate(190,0) translate(180,0)"><rect width="160" height="25" x="0" y="0" fill="url(#line)" stroke="#238" stroke-width="2" rx="5" ry="5"/><text x="10" y="17" fill="#fff">Ext.form.TimerField</text></g></g><g transform="translate(10,80) translate(0,120) translate(40,570) translate(165,15) translate(190,30)"><rect width="150" height="25" x="0" y="0" fill="url(#line)" stroke="#238" stroke-width="2" rx="5" ry="5"/><text x="10" y="17" fill="#fff">Ext.form.DateField</text></g></g><g transform="translate(10,80) translate(0,120) translate(40,570) translate(165,60)"><rect width="145" height="25" x="0" y="0" fill="url(#line)" stroke="#238" stroke-width="2" rx="5" ry="5"/><text x="10" y="17" fill="#fff">Ext.form.TextArea</text></g></g><g transform="translate(10,80) translate(0,120) translate(40,630)"><rect width="130" height="25" x="0" y="0" fill="url(#line)" stroke="#238" stroke-width="2" rx="5" ry="5"/><text x="10" y="17" fill="#fff">Ext.form.Hidden</text></g><g transform="translate(10,80) translate(0,120) translate(40,660)"><rect width="155" height="25" x="0" y="0" fill="url(#line)" stroke="#238" stroke-width="2" rx="5" ry="5"/><text x="10" y="17" fill="#fff">Ext.form.HtmlEditor</text></g><g transform="translate(10,80) translate(0,120) translate(40,690)"><rect width="150" height="25" x="0" y="0" fill="url(#line)" stroke="#238" stroke-width="2" rx="5" ry="5"/><text x="10" y="17" fill="#fff">Ext.form.CheckBox</text></g><g transform="translate(10,80) translate(0,120) translate(20,720)"><line x1="-15" x2="-5" y1="10" y2="10" stroke="#000" marker-end="url(#arrow)"/><rect width="120" height="25" x="0" y="0" fill="url(#line)" stroke="#238" stroke-width="2" rx="5" ry="5"/><text x="10" y="17" fill="#fff">Ext.form.Label</text></g></g></g><g transform="translate(175,80)"><line x1="60" x2="60" y1="-25" y2="-5" stroke="#000" marker-end="url(#arrow)"/><rect width="125" height="25" x="0" y="0" fill="url(#line)" stroke="#238" stroke-width="2" rx="5" ry="5"/><text x="10" y="17" fill="#fff">Ext.ColorPallete</text></g><g transform="translate(315,80)"><line x1="60" x2="60" y1="-25" y2="-5" stroke="#000" marker-end="url(#arrow)"/><rect width="125" height="25" x="0" y="0" fill="url(#line)" stroke="#238" stroke-width="2" rx="5" ry="5"/><text x="10" y="17" fill="#fff">Ext.DatePicker</text></g><g><g transform="translate(450,80) translate(0,0)"><line x1="40" x2="40" y1="-25" y2="-5" stroke="#000" marker-end="url(#arrow)"/><rect width="90" height="25" x="0" y="0" fill="url(#line)" stroke="#238" stroke-width="2" rx="5" ry="5"/><text x="10" y="17" fill="#fff">Ext.Editor</text><line x1="5" x2="5" y1="25" y2="40" stroke="#000"/><line x1="5" x2="15" y1="40" y2="40" stroke="#000" marker-end="url(#arrow)"/></g><g transform="translate(450,80) translate(20,30)"><rect width="150" height="25" x="0" y="0" fill="url(#line)" stroke="#238" stroke-width="2" rx="5" ry="5"/><text x="10" y="17" fill="#fff">Ext.tree.TreeEditor</text></g></g><g><g transform="translate(630,80) translate(0,0)"><line x1="70" x2="70" y1="-25" y2="-5" stroke="#000" marker-end="url(#arrow)"/><rect width="155" height="25" x="0" y="0" fill="url(#line)" stroke="#238" stroke-width="2" rx="5" ry="5"/><text x="10" y="17" fill="#fff">Ext.menu.BaseItem</text><line x1="5" x2="5" y1="25" y2="130" stroke="#000"/></g><g transform="translate(630,80) translate(20,30)"><line x1="-15" x2="-5" y1="10" y2="10" stroke="#000" marker-end="url(#arrow)"/><rect width="120" height="25" x="0" y="0" fill="url(#line)" stroke="#238" stroke-width="2" rx="5" ry="5"/><text x="10" y="17" fill="#fff">Ext.menu.Item</text><line x1="5" x2="5" y1="25" y2="40" stroke="#000"/></g><g transform="translate(630,80) translate(40,60)"><line x1="-15" x2="-5" y1="10" y2="10" stroke="#000" marker-end="url(#arrow)"/><rect width="160" height="25" x="0" y="0" fill="url(#line)" stroke="#238" stroke-width="2" rx="5" ry="5"/><text x="10" y="17" fill="#fff">Ext.menu.CheckItem</text></g><g transform="translate(630,80) translate(20,90)"><line x1="-15" x2="-5" y1="10" y2="10" stroke="#000" marker-end="url(#arrow)"/><rect width="160" height="25" x="0" y="0" fill="url(#line)" stroke="#238" stroke-width="2" rx="5" ry="5"/><text x="10" y="17" fill="#fff">Ext.menu.Separator</text></g><g transform="translate(630,80) translate(20,120)"><line x1="-15" x2="-5" y1="10" y2="10" stroke="#000" marker-end="url(#arrow)"/><rect width="150" height="25" x="0" y="0" fill="url(#line)" stroke="#238" stroke-width="2" rx="5" ry="5"/><text x="10" y="17" fill="#fff">Ext.menu.TextItem</text></g></g></svg>