<svg xmlns="http://www.w3.org/2000/svg" xmlns:xlink="http://www.w3.org/1999/xlink" width="400" height="500" viewBox="0 0 400 500" style="font-weight:700;font-family:arial,'lucida console',sans-serif,黑體;font-size:14px"><defs><linearGradient id="line" x1="50%" x2="50%" y1="0%" y2="100%"><stop offset="20%" stop-color="#8AE"/><stop offset="100%" stop-color="#249"/></linearGradient><marker id="arrow" markerHeight="8" markerWidth="10" orient="auto" refX="4" refY="4"><path fill="#fff" stroke="#000" d="M0,0 8,4 0,8Z"/></marker><g id="bg"><rect width="10" height="10" x="0" y="0" fill="url(#line)" stroke="#238" stroke-width="2" rx="5" ry="5"/></g></defs><rect width="400" height="500" x="0" y="0" fill="#fff"/><g><g transform="translate(10,10) translate(0,0)"><circle cx="100" cy="50" r="40" fill="url(#line)" stroke="#238" stroke-width="2"/><text x="67" y="55" fill="#fff">startDrag</text><line x1="100" x2="100" y1="90" y2="140" stroke="#000" marker-end="url(#arrow)"/></g><g transform="translate(10,10) translate(40,150)"><rect width="120" height="40" x="0" y="0" fill="url(#line)" stroke="#238" stroke-width="2" rx="5" ry="5"/><text x="30" y="25" fill="#fff">onDrag</text><line x1="60" x2="60" y1="40" y2="60" stroke="#000" marker-end="url(#arrow)"/></g><g transform="translate(10,10) translate(40,220)"><rect width="120" height="40" x="0" y="0" fill="url(#line)" stroke="#238" stroke-width="2" rx="5" ry="5"/><text x="18" y="25" fill="#fff">onDragDrop</text><line x1="60" x2="60" y1="40" y2="80" stroke="#000" marker-end="url(#arrow)"/></g><g transform="translate(10,10) translate(0,300)"><circle cx="100" cy="50" r="40" fill="url(#line)" stroke="#238" stroke-width="2"/><text x="67" y="55" fill="#fff">endDrag</text></g></g></svg>