<svg xmlns="http://www.w3.org/2000/svg" xmlns:xlink="http://www.w3.org/1999/xlink" width="400" height="500" viewBox="0 0 400 500" style="font-weight:700;font-family:arial,'lucida console',sans-serif,黑體;font-size:14px"><defs><linearGradient id="line" x1="50%" x2="50%" y1="0%" y2="100%"><stop offset="20%" stop-color="#8AE"/><stop offset="100%" stop-color="#249"/></linearGradient><marker id="arrow" markerHeight="8" markerWidth="10" orient="auto" refX="4" refY="4"><path fill="#fff" stroke="#000" d="M0,0 8,4 0,8Z"/></marker><g id="bg"><rect width="10" height="10" x="0" y="0" fill="url(#line)" stroke="#238" stroke-width="2" rx="5" ry="5"/></g></defs><rect width="400" height="500" x="0" y="0" fill="#fff"/><g><g transform="translate(10,10) translate(20,0)"><rect width="210" height="25" x="0" y="0" fill="url(#line)" stroke="#238" stroke-width="2" rx="5" ry="5"/><text x="10" y="17" fill="#fff">Ext.layout.ContainerLayout</text><line x1="5" x2="5" y1="25" y2="280" stroke="#000"/><line x1="5" x2="15" y1="45" y2="45" stroke="#000" marker-end="url(#arrow)"/><line x1="5" x2="15" y1="130" y2="130" stroke="#000" marker-end="url(#arrow)"/><line x1="5" x2="15" y1="160" y2="160" stroke="#000" marker-end="url(#arrow)"/><line x1="5" x2="15" y1="190" y2="190" stroke="#000" marker-end="url(#arrow)"/><line x1="5" x2="15" y1="280" y2="280" stroke="#000" marker-end="url(#arrow)"/></g><g><g transform="translate(10,10) translate(40,30)"><rect width="180" height="25" x="0" y="0" fill="url(#line)" stroke="#238" stroke-width="2" rx="5" ry="5"/><text x="10" y="17" fill="#fff">Ext.layout.AnchorLayout</text><line x1="5" x2="5" y1="25" y2="75" stroke="#000"/><line x1="5" x2="15" y1="45" y2="45" stroke="#000" marker-end="url(#arrow)"/><line x1="5" x2="15" y1="75" y2="75" stroke="#000" marker-end="url(#arrow)"/></g><g transform="translate(10,10) translate(40,30) translate(20,30)"><rect width="200" height="25" x="0" y="0" fill="url(#line)" stroke="#238" stroke-width="2" rx="5" ry="5"/><text x="10" y="17" fill="#fff">Ext.layout.AbsoluteLayout</text></g><g transform="translate(10,10) translate(40,30) translate(20,60)"><rect width="175" height="25" x="0" y="0" fill="url(#line)" stroke="#238" stroke-width="2" rx="5" ry="5"/><text x="10" y="17" fill="#fff">Ext.layout.FormLayout</text></g></g><g transform="translate(10,10) translate(40,120)"><rect width="190" height="25" x="0" y="0" fill="url(#line)" stroke="#238" stroke-width="2" rx="5" ry="5"/><text x="10" y="17" fill="#fff">Ext.layout.BorderLayout</text></g><g transform="translate(10,10) translate(40,150)"><rect width="190" height="25" x="0" y="0" fill="url(#line)" stroke="#238" stroke-width="2" rx="5" ry="5"/><text x="10" y="17" fill="#fff">Ext.layout.ColumnLayout</text></g><g><g transform="translate(10,10) translate(40,180)"><rect width="160" height="25" x="0" y="0" fill="url(#line)" stroke="#238" stroke-width="2" rx="5" ry="5"/><text x="10" y="17" fill="#fff">Ext.layout.FitLayout</text><line x1="5" x2="5" y1="25" y2="75" stroke="#000"/><line x1="5" x2="15" y1="45" y2="45" stroke="#000" marker-end="url(#arrow)"/><line x1="5" x2="15" y1="75" y2="75" stroke="#000" marker-end="url(#arrow)"/></g><g transform="translate(10,10) translate(40,180) translate(20,30)"><rect width="160" height="25" x="0" y="0" fill="url(#line)" stroke="#238" stroke-width="2" rx="5" ry="5"/><text x="10" y="17" fill="#fff">Ext.layout.Accordion</text></g><g transform="translate(10,10) translate(40,180) translate(20,60)"><rect width="175" height="25" x="0" y="0" fill="url(#line)" stroke="#238" stroke-width="2" rx="5" ry="5"/><text x="10" y="17" fill="#fff">Ext.layout.CardLayout</text></g></g><g transform="translate(10,10) translate(40,270)"><rect width="180" height="25" x="0" y="0" fill="url(#line)" stroke="#238" stroke-width="2" rx="5" ry="5"/><text x="10" y="17" fill="#fff">Ext.layout.TableLayout</text></g></g></svg>