<svg xmlns="http://www.w3.org/2000/svg" xmlns:xlink="http://www.w3.org/1999/xlink" width="400" height="500" viewBox="0 0 400 500" style="font-weight:700;font-family:arial,'lucida console',sans-serif,黑體;font-size:14px"><defs><linearGradient id="line" x1="50%" x2="50%" y1="0%" y2="100%"><stop offset="20%" stop-color="#8AE"/><stop offset="100%" stop-color="#249"/></linearGradient><marker id="arrow" markerHeight="8" markerWidth="10" orient="auto" refX="4" refY="4"><path fill="#fff" stroke="#000" d="M0,0 8,4 0,8Z"/></marker><g id="bg"><rect width="10" height="10" x="0" y="0" fill="url(#line)" stroke="#238" stroke-width="2" rx="5" ry="5"/></g></defs><rect width="400" height="500" x="0" y="0" fill="#fff"/><g><g transform="translate(10,10) translate(20,0)"><rect width="120" height="25" x="0" y="0" fill="url(#line)" stroke="#238" stroke-width="2" rx="5" ry="5"/><text x="10" y="17" fill="#fff">Ext.Container</text><line x1="5" x2="5" y1="25" y2="75" stroke="#000"/><line x1="5" x2="15" y1="45" y2="45" stroke="#000" marker-end="url(#arrow)"/><line x1="5" x2="15" y1="75" y2="75" stroke="#000" marker-end="url(#arrow)"/></g><g transform="translate(10,10) translate(40,30)"><rect width="110" height="25" x="0" y="0" fill="url(#line)" stroke="#238" stroke-width="2" rx="5" ry="5"/><text x="10" y="17" fill="#fff">Ext.Viewport</text></g><g><g transform="translate(10,10) translate(40,60) translate(0,0)"><rect width="90" height="25" x="0" y="0" fill="url(#line)" stroke="#238" stroke-width="2" rx="5" ry="5"/><text x="10" y="17" fill="#fff">Ext.Panel</text><line x1="5" x2="5" y1="25" y2="225" stroke="#000"/><line x1="5" x2="15" y1="45" y2="45" stroke="#000" marker-end="url(#arrow)"/><line x1="5" x2="15" y1="75" y2="75" stroke="#000" marker-end="url(#arrow)"/><line x1="5" x2="15" y1="105" y2="105" stroke="#000" marker-end="url(#arrow)"/><line x1="5" x2="15" y1="135" y2="135" stroke="#000" marker-end="url(#arrow)"/><line x1="5" x2="15" y1="165" y2="165" stroke="#000" marker-end="url(#arrow)"/><line x1="5" x2="15" y1="195" y2="195" stroke="#000" marker-end="url(#arrow)"/><line x1="5" x2="15" y1="225" y2="225" stroke="#000" marker-end="url(#arrow)"/></g><g transform="translate(10,10) translate(40,60) translate(20,30)"><rect width="110" height="25" x="0" y="0" fill="url(#line)" stroke="#238" stroke-width="2" rx="5" ry="5"/><text x="10" y="17" fill="#fff">Ext.TabPanel</text></g><g transform="translate(10,10) translate(40,60) translate(20,60)"><rect width="70" height="25" x="0" y="0" fill="url(#line)" stroke="#238" stroke-width="2" rx="5" ry="5"/><text x="10" y="17" fill="#fff">Ext.Tip</text></g><g transform="translate(10,10) translate(40,60) translate(20,90)"><rect width="100" height="25" x="0" y="0" fill="url(#line)" stroke="#238" stroke-width="2" rx="5" ry="5"/><text x="10" y="17" fill="#fff">Ext.Window</text></g><g transform="translate(10,10) translate(40,60) translate(20,120)"><rect width="140" height="25" x="0" y="0" fill="url(#line)" stroke="#238" stroke-width="2" rx="5" ry="5"/><text x="10" y="17" fill="#fff">Ext.form.FieldSet</text></g><g transform="translate(10,10) translate(40,60) translate(20,150)"><rect width="155" height="25" x="0" y="0" fill="url(#line)" stroke="#238" stroke-width="2" rx="5" ry="5"/><text x="10" y="17" fill="#fff">Ext.form.FormPanel</text></g><g transform="translate(10,10) translate(40,60) translate(20,180)"><rect width="150" height="25" x="0" y="0" fill="url(#line)" stroke="#238" stroke-width="2" rx="5" ry="5"/><text x="10" y="17" fill="#fff">Ext.tree.TreePanel</text></g><g><g transform="translate(10,10) translate(40,60) translate(20,210)"><rect width="150" height="25" x="0" y="0" fill="url(#line)" stroke="#238" stroke-width="2" rx="5" ry="5"/><text x="10" y="17" fill="#fff">Ext.grid.GridPanel</text><line x1="5" x2="5" y1="25" y2="75" stroke="#000"/><line x1="5" x2="15" y1="45" y2="45" stroke="#000" marker-end="url(#arrow)"/><line x1="5" x2="15" y1="75" y2="75" stroke="#000" marker-end="url(#arrow)"/></g><g transform="translate(10,10) translate(40,60) translate(20,210) translate(20,30)"><rect width="185" height="25" x="0" y="0" fill="url(#line)" stroke="#238" stroke-width="2" rx="5" ry="5"/><text x="10" y="17" fill="#fff">Ext.grid.EditorGridPanel</text></g><g transform="translate(10,10) translate(40,60) translate(20,210) translate(20,60)"><rect width="170" height="25" x="0" y="0" fill="url(#line)" stroke="#238" stroke-width="2" rx="5" ry="5"/><text x="10" y="17" fill="#fff">Ext.grid.PropertyGrid</text></g></g></g></g></svg>