<svg xmlns="http://www.w3.org/2000/svg" xmlns:xlink="http://www.w3.org/1999/xlink" width="950" height="400" viewBox="0 0 950 400" style="font-weight:700;font-family:arial,'lucida console',sans-serif,黑體;font-size:14px"><defs><linearGradient id="line" x1="50%" x2="50%" y1="0%" y2="100%"><stop offset="20%" stop-color="#8AE"/><stop offset="100%" stop-color="#249"/></linearGradient><marker id="arrow" markerHeight="8" markerWidth="10" orient="auto" refX="4" refY="4"><path fill="#fff" stroke="#000" d="M0,0 8,4 0,8Z"/></marker><g id="bg"><rect width="10" height="10" x="0" y="0" fill="url(#line)" stroke="#238" stroke-width="2" rx="5" ry="5"/></g></defs><rect width="950" height="700" x="0" y="0" fill="#fff"/><g transform="translate(400,10)"><rect width="130" height="25" x="0" y="0" fill="url(#line)" stroke="#238" stroke-width="2" rx="5" ry="5"/><text x="10" y="17" fill="#fff">Ext.form.Field</text><line x1="65" x2="65" y1="25" y2="45" stroke="#000"/><line x1="-320" x2="350" y1="45" y2="45" stroke="#000"/><line x1="-320" x2="-320" y1="45" y2="65" stroke="#000" marker-end="url(#arrow)"/><line x1="-160" x2="-160" y1="45" y2="65" stroke="#000" marker-end="url(#arrow)"/><line x1="70" x2="70" y1="45" y2="65" stroke="#000" marker-end="url(#arrow)"/><line x1="350" x2="350" y1="45" y2="65" stroke="#000" marker-end="url(#arrow)"/></g><g><g transform="translate(10,80) translate(0,0)"><rect width="150" height="25" x="0" y="0" fill="url(#line)" stroke="#238" stroke-width="2" rx="5" ry="5"/><text x="10" y="17" fill="#fff">Ext.form.Checkbox</text><line x1="70" x2="70" y1="25" y2="45" stroke="#000" marker-end="url(#arrow)"/></g><g transform="translate(10,80) translate(0,50)"><rect width="150" height="25" x="0" y="0" fill="url(#line)" stroke="#238" stroke-width="2" rx="5" ry="5"/><text x="20" y="17" fill="#fff">Ext.form.Radio</text></g></g><g transform="translate(175,80)"><rect width="130" height="25" x="0" y="0" fill="url(#line)" stroke="#238" stroke-width="2" rx="5" ry="5"/><text x="8" y="17" fill="#fff">Ext.form.Hidden</text></g><g><g transform="translate(400,80) translate(0,0)"><rect width="145" height="25" x="0" y="0" fill="url(#line)" stroke="#238" stroke-width="2" rx="5" ry="5"/><text x="10" y="17" fill="#fff">Ext.form.TextField</text><line x1="70" x2="70" y1="25" y2="45" stroke="#000"/><line x1="-80" x2="240" y1="45" y2="45" stroke="#000"/><line x1="-80" x2="-80" y1="45" y2="55" stroke="#000" marker-end="url(#arrow)"/><line x1="80" x2="80" y1="45" y2="55" stroke="#000" marker-end="url(#arrow)"/><line x1="240" x2="240" y1="45" y2="55" stroke="#000" marker-end="url(#arrow)"/></g><g transform="translate(400,80) translate(-170,60)"><rect width="170" height="25" x="0" y="0" fill="url(#line)" stroke="#238" stroke-width="2" rx="5" ry="5"/><text x="10" y="17" fill="#fff">Ext.form.NumberField</text></g><g transform="translate(400,80) translate(10,60)"><rect width="140" height="25" x="0" y="0" fill="url(#line)" stroke="#238" stroke-width="2" rx="5" ry="5"/><text x="10" y="17" fill="#fff">Ext.form.TextArea</text></g><g><g transform="translate(400,80) translate(160,60) translate(0,0"><rect width="170" height="25" x="0" y="0" fill="url(#line)" stroke="#238" stroke-width="2" rx="5" ry="5"/><text x="10" y="17" fill="#fff">Ext.form.TriggerField</text><line x1="80" x2="80" y1="25" y2="45" stroke="#000"/><line x1="0" x2="150" y1="45" y2="45" stroke="#000"/><line x1="0" x2="0" y1="45" y2="55" stroke="#000" marker-end="url(#arrow)"/><line x1="150" x2="150" y1="45" y2="55" stroke="#000" marker-end="url(#arrow)"/></g><g transform="translate(400,80) translate(160,60) translate(-80,60)"><rect width="160" height="25" x="0" y="0" fill="url(#line)" stroke="#238" stroke-width="2" rx="5" ry="5"/><text x="10" y="17" fill="#fff">Ext.form.ComboBox</text><line x1="80" x2="80" y1="25" y2="45" stroke="#000" marker-end="url(#arrow)"/></g><g transform="translate(400,80) translate(160,60) translate(-80,110)"><rect width="160" height="25" x="0" y="0" fill="url(#line)" stroke="#238" stroke-width="2" rx="5" ry="5"/><text x="10" y="17" fill="#fff">Ext.form.TimeField</text></g><g transform="translate(400,80) translate(160,60) translate(90,60)"><rect width="150" height="25" x="0" y="0" fill="url(#line)" stroke="#238" stroke-width="2" rx="5" ry="5"/><text x="10" y="17" fill="#fff">Ext.form.DateField</text></g></g></g><g transform="translate(690,80)"><rect width="125" height="25" x="0" y="0" fill="url(#line)" stroke="#238" stroke-width="2" rx="5" ry="5"/><text x="10" y="17" fill="#fff">Ext.HtmlEditor</text></g></svg>